<?xml version="1.0" standalone="no"?>
<!DOCTYPE svg PUBLIC "-//W3C//DTD SVG 20010904//EN"
 "http://www.w3.org/TR/2001/REC-SVG-20010904/DTD/svg10.dtd">
<svg version="1.0" xmlns="http://www.w3.org/2000/svg"
 width="1080.000000pt" height="200.000000pt" viewBox="0 0 1080.000000 200.000000"
 preserveAspectRatio="xMidYMid meet">

<g transform="translate(0.000000,200.000000) scale(0.100000,-0.100000)"
fill="#ff0000" stroke="none">
<path d="M6228 1986 c-64 -17 -111 -56 -142 -118 -58 -117 -11 -249 108 -304
79 -37 153 -30 226 21 105 73 121 244 32 338 -57 60 -143 84 -224 63z"/>
<path d="M120 1203 c0 -747 1 -756 56 -865 32 -63 131 -168 191 -204 90 -53
147 -66 311 -71 l152 -6 0 175 0 176 -88 4 c-100 5 -143 23 -179 78 -23 32
-23 39 -23 321 l0 289 145 0 145 0 0 175 0 175 -145 0 -145 0 0 220 0 220
-210 0 -210 0 0 -687z"/>
<path d="M5470 1639 c0 -138 -3 -249 -7 -247 -5 2 -31 15 -58 30 -103 53 -188
73 -325 72 -148 0 -227 -17 -346 -75 -138 -67 -248 -177 -314 -314 -59 -122
-74 -190 -74 -340 -1 -153 14 -218 76 -345 34 -69 58 -102 132 -176 77 -76
106 -97 186 -137 142 -69 198 -81 375 -81 164 0 226 11 341 64 151 68 282 192
353 332 78 157 75 127 79 836 l3 632 -211 0 -210 0 0 -251z m-276 -504 c96
-16 194 -93 241 -189 96 -196 24 -440 -157 -532 -75 -39 -208 -45 -290 -14
-244 91 -311 435 -126 636 63 68 193 120 273 108 11 -2 38 -6 59 -9z"/>
<path d="M3237 1485 c-381 -72 -636 -391 -614 -765 7 -119 26 -192 79 -300 57
-116 186 -247 304 -307 135 -70 214 -88 389 -88 176 1 232 13 375 82 82 39
108 58 186 137 68 68 100 110 128 166 l37 75 -226 3 -227 2 -34 -30 c-51 -44
-105 -68 -182 -82 -137 -23 -273 36 -352 154 -71 107 -121 98 509 98 l549 0 6
31 c19 97 -4 272 -51 384 -86 206 -276 368 -500 426 -104 27 -274 33 -376 14z
m304 -372 c55 -25 123 -83 155 -135 13 -21 24 -40 24 -43 0 -3 -144 -5 -320
-5 -262 0 -320 2 -320 13 0 24 59 97 106 130 74 53 127 68 224 64 59 -2 99
-10 131 -24z"/>
<path d="M7297 1485 c-381 -72 -636 -391 -614 -765 7 -119 26 -192 79 -300 57
-116 186 -247 304 -307 135 -70 214 -88 389 -88 176 1 232 13 375 82 82 39
107 58 185 137 139 140 201 278 212 471 21 356 -206 665 -554 756 -104 27
-274 33 -376 14z m305 -372 c147 -66 238 -247 210 -417 -29 -178 -134 -289
-299 -318 -60 -10 -80 -9 -139 5 -87 22 -161 72 -209 141 -48 71 -66 134 -67
236 0 173 87 305 240 363 65 24 199 19 264 -10z"/>
<path d="M9001 1489 c-77 -13 -184 -52 -249 -91 -81 -48 -212 -180 -255 -258
-20 -36 -48 -101 -64 -145 l-28 -80 -3 -427 -3 -428 215 0 216 0 0 408 0 409
31 61 c65 131 204 189 349 146 41 -12 67 -29 110 -72 91 -91 90 -87 90 -554
l0 -398 216 0 216 0 -4 417 c-5 462 -6 468 -73 611 -88 187 -263 333 -466 388
-69 18 -228 26 -298 13z"/>
<path d="M1010 1060 c0 -442 5 -489 69 -625 123 -261 365 -415 651 -415 200 0
359 67 505 214 74 74 99 107 132 176 76 154 76 155 80 623 l5 417 -216 0 -215
0 -3 -412 -3 -413 -30 -54 c-55 -100 -144 -153 -256 -153 -109 0 -199 53 -257
151 l-27 46 -3 418 -3 417 -214 0 -215 0 0 -390z"/>
<path d="M6080 755 l0 -695 210 0 210 0 0 695 0 695 -210 0 -210 0 0 -695z"/>
<path d="M10132 479 c-136 -68 -162 -249 -52 -360 76 -76 182 -89 277 -33 63
37 96 92 101 169 5 76 -10 125 -51 172 -64 73 -186 96 -275 52z"/>
</g>
</svg>
